<svg width="64" height="58" viewBox="0 0 64 58" fill="none" xmlns="http://www.w3.org/2000/svg">
<path d="M38.2887 46.0102C36.6882 46.6814 36.017 48.5917 36.7398 50.1405L39.2696 55.4583C39.9924 56.9551 41.7478 57.6268 43.2967 56.9551C47.6852 55.0964 51.4541 52.6698 54.4486 49.727C58.1143 46.2683 60.5925 42.2929 61.9348 37.9044C63.2772 33.4638 64 27.4237 64 19.731L64 3.88083C64 2.17706 62.606 0.783077 60.9023 0.783077L40.612 0.783075C38.9082 0.783075 37.5143 2.17706 37.5143 3.88082L37.5142 24.1711C37.5142 25.8754 38.9082 27.2688 40.612 27.2688L50.3183 27.2688C50.215 32.4839 48.9759 36.6653 46.7042 39.8152C44.8456 42.344 42.0576 44.4092 38.2887 46.0102Z" fill="#2E6EFF"/>
<path d="M1.83712 46.0093C0.236615 46.6805 -0.434047 48.5908 0.288245 50.1397L2.81807 55.4053C3.54088 56.9026 5.29627 57.5737 6.84515 56.9026C11.182 55.0439 14.8998 52.6173 17.9454 49.7261C21.6116 46.2153 24.1409 42.2399 25.4838 37.8514C26.8261 33.5151 27.4968 27.474 27.4968 19.7296L27.4968 3.87943C27.4968 2.17567 26.1028 0.781685 24.3991 0.781685L4.10881 0.781683C2.40504 0.781683 1.01106 2.17567 1.01106 3.87943L1.01106 24.1697C1.01106 25.874 2.40504 27.2674 4.1088 27.2674L13.8667 27.2674C13.7634 32.4825 12.5238 36.6639 10.2527 39.8138C8.39402 42.3431 5.60605 44.4083 1.83712 46.0093Z" fill="#2E6EFF"/>
</svg>
